<svg xmlns="http://www.w3.org/2000/svg" viewBox="0 0 289.25 302.42"><defs><style>.cls-1{fill:#71c4bd;}.cls-2{fill:#1b1464;}.cls-3{fill:#fff;}</style></defs><g id="Layer_2" data-name="Layer 2"><g id="Layer_1-2" data-name="Layer 1"><path class="cls-1" d="M267.47,170c-.7-.74-1.43-1.46-2.17-2.17s-1.38-1.41-2.1-2.1-1.41-1.45-2.14-2.15-1.4-1.43-2.13-2.12-1.41-1.44-2.14-2.15-1.4-1.42-2.12-2.12-1.42-1.44-2.15-2.14-1.39-1.43-2.12-2.12c-.2-.22-.41-.43-.62-.64,17.07-13.35,26.31-32.48,26.31-55.13,0-19.21-6.91-35.73-20.1-48.33-.7-.73-1.41-1.45-2.15-2.15s-1.39-1.43-2.12-2.12-1.4-1.44-2.14-2.14-1.39-1.43-2.12-2.12-1.41-1.45-2.15-2.15-1.39-1.43-2.12-2.12-1.41-1.44-2.14-2.15-1.4-1.42-2.12-2.11-1.41-1.45-2.15-2.15a72.74,72.74,0,0,0-10.46-9C207,7,179.15,0,143.65,0H0V281.1l4.26,4.26h0l4.26,4.27h0l4.26,4.26h0l4.27,4.27h0l4.26,4.26h151.4c36.94,0,65.84-6.88,85.87-20.47s30.66-34,30.66-58.89C289.25,201.83,281.57,183.6,267.47,170ZM151.39,271.1H31.32V31.32H165c30.95,0,55.52,5.59,72.7,16a57.19,57.19,0,0,1,7.09,28.51c0,23.87-12,43.2-33.7,54.43l-10.25,5.3,3.71,1.31-1.58.82,3.71,1.31-1.58.82,3.72,1.32-1.58.81,3.71,1.32-1.58.82,3.71,1.31-1.58.82,3.71,1.31-1.58.82,3.71,1.32-1.58.81,3.72,1.32-1.58.82,3.71,1.31-1.58.82,3.71,1.31-1.58.82L233,160.78a84.19,84.19,0,0,1,16.34,7.75c5.64,9.53,8.58,20.7,8.58,33.21C257.93,246.47,220.09,271.1,151.39,271.1Z"/><path class="cls-1" d="M202.65,192.26a25.42,25.42,0,0,0-2.14-2.14,28.37,28.37,0,0,0-2.12-2.13,28.8,28.8,0,0,0-2.14-2.14,25.09,25.09,0,0,0-2.13-2.12,24,24,0,0,0-2.14-2.14,28.37,28.37,0,0,0-2.12-2.13,28.8,28.8,0,0,0-2.14-2.14,28.26,28.26,0,0,0-2.12-2.12,28.8,28.8,0,0,0-2.14-2.14c-6.36-7.13-18-12.34-38.26-12.34H75.91v65H78v2.13h2.13V230H82.3v2.13h2.14v2.14h2.13v2.13H88.7v2.13h2.13v2.13H93v2.14H95.1v2.13h2.13V247h69.29c37.42,0,45.28-17.67,45.28-32.5C211.8,206.94,209.72,198.59,202.65,192.26ZM145.2,215.72h-38V192.05h59.29a81.81,81.81,0,0,1,13.95,1.06v.11C180.47,202.88,176.82,215.72,145.2,215.72Z"/><path class="cls-1" d="M78,119.8h2.13v2.13H82.3v2.13h2.14v2.13h2.13v2.14H88.7v2.13h2.13v2.13H93v2.13H95.1v2.14h2.13V139H154.9c36.14,0,43.73-17,43.73-31.34,0-6.16-1.62-14.56-8.91-21.05a25.41,25.41,0,0,0-2.14-2.14,25.18,25.18,0,0,0-2.13-2.13,25.18,25.18,0,0,0-2.13-2.13,26.75,26.75,0,0,0-2.13-2.13,25.41,25.41,0,0,0-2.14-2.14,25.18,25.18,0,0,0-2.13-2.13,25.18,25.18,0,0,0-2.13-2.13,26.75,26.75,0,0,0-2.13-2.13,25.41,25.41,0,0,0-2.14-2.14c-6-6.71-17-12-36.94-12H75.91v62.28H78Zm29.19-33.09H154.9a79,79,0,0,1,12.39.88c-.15,6.19-2.34,20.07-33.71,20.07H107.23Z"/><path class="cls-2" d="M262.93,201.74c0,46.86-38.73,74.36-111.54,74.36H5V5H143.65c71.26,0,106.11,29.05,106.11,70.87,0,25.95-13.16,46.86-36.4,58.87C244,145.58,262.93,168.82,262.93,201.74ZM80.91,60.38v52.28h52.67c25.56,0,38.73-8.9,38.73-26.33,0-17-13.17-25.95-38.73-25.95ZM185.47,193.22c0-18.59-13.94-27.5-40.27-27.5H80.91v55H145.2C171.53,220.72,185.47,211.81,185.47,193.22Z"/><polygon class="cls-3" points="11 278.1 3 278.1 3 270.1 7 270.1 7 274.1 11 274.1 11 278.1"/><path class="cls-3" d="M7,257.76H3V245.42H7Zm0-24.68H3V220.75H7Zm0-24.67H3V196.07H7Zm0-24.68H3V171.39H7Zm0-24.67H3V146.72H7Zm0-24.68H3V122H7ZM7,109.7H3V97.37H7ZM7,85H3V72.69H7ZM7,60.35H3V48H7ZM7,35.68H3V23.34H7Z"/><polygon class="cls-3" points="7 11 3 11 3 3 11 3 11 7 7 7 7 11"/><path class="cls-3" d="M229.52,126.2l-2.64-3a62.32,62.32,0,0,0,7.89-8.3l3.14,2.48A67,67,0,0,1,229.52,126.2Zm15-19.08L241,105.29a60.88,60.88,0,0,0,4.22-10.62L249,95.79A64,64,0,0,1,244.5,107.12Zm6.84-23.26-4-.43a72.18,72.18,0,0,0,.39-7.56c0-1.31,0-2.63-.1-3.93l4-.22c.08,1.37.11,2.77.11,4.15A75.1,75.1,0,0,1,251.34,83.86ZM246,60.62a57.36,57.36,0,0,0-3.74-10.77l3.63-1.69a61.77,61.77,0,0,1,4,11.52Zm-9.57-20.55a59.19,59.19,0,0,0-7.68-8.45l2.7-3a64.88,64.88,0,0,1,8.19,9ZM219.68,24.63a85.23,85.23,0,0,0-10.1-5.57l1.69-3.62a89.8,89.8,0,0,1,10.59,5.83Zm-20.87-9.85c-3.55-1.2-7.31-2.27-11.19-3.18l.92-3.9c4,1,7.88,2.05,11.54,3.29ZM176.16,9.36c-3.72-.59-7.62-1.07-11.6-1.44l.36-4c4.07.37,8.06.87,11.87,1.46ZM152.87,7.17c-3-.11-6.11-.17-9.22-.17h-2.53V3h2.53c3.16,0,6.31.06,9.37.17ZM129.29,7H117.46V3h11.83ZM105.63,7H93.8V3h11.83ZM82,7H70.14V3H82ZM58.32,7H46.49V3H58.32ZM34.66,7H22.83V3H34.66Z"/><path class="cls-3" d="M218.17,138.75c-1.77-.75-3.62-1.47-5.48-2.12l-4.35-1.55,4.1-2.12c1.75-.9,3.47-1.87,5.1-2.88l2.1,3.41c-.5.31-1,.61-1.53.91l1.62.67Z"/><path class="cls-3" d="M151.39,278.1h-7.23v-4h7.23c1.63,0,3.24,0,4.83,0l.07,4C154.67,278.08,153,278.1,151.39,278.1Zm-19.32,0H120v-4h12.09Zm-24.18,0H95.8v-4h12.09Zm-24.18,0H71.62v-4H83.71Zm-24.18,0H47.44v-4H59.53Zm-24.19,0H23.25v-4H35.34Zm133.12-.54-.26-4c4.08-.27,8.09-.64,11.93-1.1l.48,4C176.7,276.91,172.62,277.29,168.46,277.56Zm24.22-3-.74-3.93c4-.77,7.93-1.66,11.62-2.68l1.06,3.86C200.82,272.87,196.8,273.79,192.68,274.58ZM216.29,268l-1.43-3.74a99,99,0,0,0,10.79-4.86l1.87,3.54A104.37,104.37,0,0,1,216.29,268ZM238,256.43l-2.36-3.22a67.16,67.16,0,0,0,8.8-7.72l2.9,2.76A70.5,70.5,0,0,1,238,256.43Zm17-18-3.38-2.13a58,58,0,0,0,5.18-10.44l3.74,1.41A61.07,61.07,0,0,1,255,238.43Zm8.79-23.16-3.94-.69a72.48,72.48,0,0,0,1.07-11.7l4,.06A78,78,0,0,1,263.79,215.27Zm-3.57-24.14a69.24,69.24,0,0,0-2.58-11.44l3.81-1.22a73,73,0,0,1,2.73,12.11Zm-7.17-22.2a62.11,62.11,0,0,0-6.55-9.68l3.09-2.54a65.47,65.47,0,0,1,7,10.31Zm-14.79-18a73.25,73.25,0,0,0-9.57-6.83l2.06-3.43a77.13,77.13,0,0,1,10.1,7.2Z"/><polygon class="cls-3" points="82.91 66.38 78.91 66.38 78.91 58.38 86.91 58.38 86.91 62.38 82.91 62.38 82.91 66.38"/><rect class="cls-3" x="78.91" y="79.81" width="4" height="13.43"/><polygon class="cls-3" points="86.91 114.67 78.91 114.67 78.91 106.67 82.91 106.67 82.91 110.67 86.91 110.67 86.91 114.67"/><path class="cls-3" d="M133.77,114.66H122.06v-4h11.71Zm-23.43,0H98.62v-4h11.72Zm35.39-.77-.56-4A47.53,47.53,0,0,0,156,107.19l1.48,3.71A51.13,51.13,0,0,1,145.73,113.89ZM167.94,104,165,101.3A19.36,19.36,0,0,0,169.76,92l3.91.83A23.35,23.35,0,0,1,167.94,104Zm1.88-22.9a19.14,19.14,0,0,0-4.69-9.36l2.93-2.72a23,23,0,0,1,5.68,11.29ZM156.15,65.89a46.78,46.78,0,0,0-10.86-2.75l.56-4a51.5,51.5,0,0,1,11.79,3Zm-22.26-3.51H122.18v-4H133.9Zm-23.43,0H98.75v-4h11.71Z"/><polygon class="cls-3" points="82.91 171.72 78.91 171.72 78.91 163.72 86.91 163.72 86.91 167.72 82.91 167.72 82.91 171.72"/><rect class="cls-3" x="78.91" y="186.05" width="4" height="14.33"/><polygon class="cls-3" points="86.91 222.72 78.91 222.72 78.91 214.72 82.91 214.72 82.91 218.72 86.91 218.72 86.91 222.72"/><path class="cls-3" d="M134.75,222.72h-12v-4h12Zm-23.92,0h-12v-4h12Zm35.91,0-.05-4a84.85,84.85,0,0,0,11.63-.9l.61,3.95A88.12,88.12,0,0,1,146.74,222.71Zm24.18-4.21-1.57-3.68a24.48,24.48,0,0,0,9-6.25l3,2.63A28.4,28.4,0,0,1,170.92,218.5Zm16-18.89-3.93-.76a29.61,29.61,0,0,0,.51-5.63,30.14,30.14,0,0,0-.48-5.51l3.93-.74a35.64,35.64,0,0,1,0,12.64ZM178.43,178a24.39,24.39,0,0,0-9-6.29l1.58-3.68a28.39,28.39,0,0,1,10.41,7.36Zm-20-9.31a83.27,83.27,0,0,0-11.63-.92l.06-4a88.23,88.23,0,0,1,12.19,1Zm-23.57-.93h-12v-4h12Zm-23.92,0H99v-4h12Z"/></g></g></svg>